<svg xmlns="http://www.w3.org/2000/svg" style="background:#fff" viewBox="172 80 1210 870">
  <rect width="1000" height="600" x="274" y="232" fill="none" stroke="#000" stroke-miterlimit="10" stroke-width="5"/>
  <line x1="274" x2="1274" y1="178" y2="178"/>
  <line x1="290" x2="296" y1="178" y2="178" fill="none" stroke="#000" stroke-miterlimit="10" stroke-width="4"/>
  <line x1="308" x2="1246" y1="178" y2="178" fill="none" stroke="#000" stroke-dasharray="12 12" stroke-miterlimit="10" stroke-width="4"/>
  <line x1="1252" x2="1258" y1="178" y2="178" fill="none" stroke="#000" stroke-miterlimit="10" stroke-width="4"/>
  <path d="m294 178 4-7-12 4-12 3 12 3 12 4-4-7zm960 0-4-7 12 4 12 3-12 3-12 4 4-7z"/>
  <text font-size="72" transform="translate(737 152)">10</text>
  <text font-size="72" transform="translate(191 554)">6</text>
  <line x1="274" x2="1274" y1="530.5" y2="530.5" fill="none" stroke="#000" stroke-dasharray="2 3" stroke-miterlimit="10" stroke-width="3"/>
  <line x1="251" x2="251" y1="247" y2="253" fill="none" stroke="#000" stroke-miterlimit="10" stroke-width="4"/>
  <line x1="251" x2="251" y1="265" y2="803" fill="none" stroke="#000" stroke-dasharray="12 12" stroke-miterlimit="10" stroke-width="4"/>
  <line x1="251" x2="251" y1="809" y2="815" fill="none" stroke="#000" stroke-miterlimit="10" stroke-width="4"/>
  <path d="m251 251 7 4-4-12-3-12-3 12-4 12 7-4zm0 560 7-4-4 12-3 12-3-12-4-12 7 4z"/>
  <line x1="274" x2="724" y1="865" y2="865"/>
  <line x1="290" x2="708" y1="865" y2="865" fill="none" stroke="#000" stroke-dasharray="12 12" stroke-miterlimit="10" stroke-width="4"/>
  <path d="m294 865 4-8-12 5-12 3 12 2 12 5-4-7zm410 0-4-8 12 5 12 3-12 2-12 5 4-7z"/>
  <text font-size="72" transform="translate(455 930)">4.5</text>
  <line x1="723.5" x2="723.5" y1="831" y2="231" stroke="#000" stroke-dasharray="2 3" stroke-miterlimit="10" stroke-width="3"/>
  <circle cx="723.1" cy="531.1" r="200" fill="none" stroke="#000" stroke-miterlimit="10" stroke-width="5"/>
  <line x1="723.1" x2="879.9" y1="531.1" y2="445.1" fill="none" stroke="#000" stroke-dasharray="12 12" stroke-miterlimit="10" stroke-width="5"/>
  <path d="M898 435c-6 8-14 19-18 29l-2-18-14-11c10 2 24 1 34 0z"/>
  <text font-size="72" transform="translate(744 603)">r = 2</text>
  <line x1="1294" x2="1294" y1="531" y2="831"/>
  <line x1="1294" x2="1294" y1="547" y2="815" fill="none" stroke="#000" stroke-dasharray="12 12" stroke-miterlimit="10" stroke-width="4"/>
  <path d="m1294 551 7 4-4-12-3-12-3 12-4 12 7-4zm0 260 7-4-4 12-3 12-3-12-4-12 7 4z"/>
  <text font-size="72" transform="translate(1316 697)">3</text>
</svg>
